Patient4_TMGait_0pt6_01_left_11_EMG.mot
version=1
nRows=27
nColumns=33
inDegrees=no
endheader
time	1LAddLong	2LGlutMax	3LGlutMed	4LIliopsoas	5LSemiMemb	6LBicFemLong	7LRecFem	8LVastMed	9LVastLat	10LGasMed	11LTibAnt	12lTibPost	13LPeroneusLong	14LSol	15LExtDigLong	16LFlexDigLong	17RAddLong	18RGlutMax	19RGlutMed	20RIliopsoas	21RSemiMemb	22RBicFemLong	23RRecFem	24RVastMed	25RVastLat	26RGasMed	27RTibAnt	28RTibPost	29RPeroneusLong	30RSol	31RExtDigLong	32RFlexDigLong
13.772	0.025787	0.81787	-0.092316	-0.005341	0.03418	-0.96466	0.52994	0.012207	-0.12787	-0.049896	-0.13092	0.007324	-0.61066	-0.023651	0.43289	-0.009766	0.095062	0.025024	-0.19821	0.011292	-0.025482	-0.10651	0.62454	-0.1149	-0.052185	-0.007782	0.05188	-0.007782	-0.10086	-0.072784	0.003815	0.004578
13.773	0.021973	0.93475	-0.092316	0.009155	0.082855	-0.44769	0.51285	0.007477	-0.11505	0.068817	-0.064087	-0.001068	-0.18127	0.031128	0.12253	-0.013123	0.089417	0.006104	-0.17364	-0.0177	-0.036926	0.000916	0.60257	-0.082092	-0.028076	-0.001984	0.071106	-0.009766	-0.099335	-0.097504	0.007477	-0.003662
13.774	0.017395	0.96847	-0.055542	0.006866	0.043793	-0.26916	0.48981	0.009003	-0.098267	0.31403	0.021667	0.000458	-0.066833	0.005188	0.01358	-0.010681	0.057373	0.03067	-0.11185	-0.026245	-0.046387	0.03006	0.61996	-0.070343	-0.050354	0	0.10895	-0.009918	-0.10071	-0.070343	0.000916	-0.00351
13.775	0.00473	0.93948	-0.043335	0.016174	0.015106	-0.13916	0.47043	0.02243	-0.11307	0.36713	0.051422	0.007172	-0.11963	-0.25391	0.034332	-0.004883	0.006104	-0.031586	-0.096893	-0.006561	-0.034485	-0.027161	0.58502	-0.10132	-0.042572	-0.001678	0.1471	-0.009308	-0.12222	0.00473	0.002747	-0.010986
13.776	-0.003357	0.88837	-0.009613	0.010834	-0.047302	0.00824	0.43091	0.031891	-0.18051	0.38544	0.10849	0.00351	0.53085	-0.3624	0.081482	0.000763	0.020142	-0.12329	-0.12207	0.00061	-0.062714	-0.017548	0.56793	-0.081329	-0.022888	-0.000458	0.10529	-0.005951	-0.14236	0.040436	0.003967	0.001068
13.777	0.003815	0.93536	0.000458	0.018463	-0.10086	0.019226	0.36606	0.031738	-0.15762	0.6517	-0.023651	0.012207	0.041504	-0.32883	0.11246	-0.004272	0.025177	-0.1593	-0.15045	-0.027618	-0.096283	-0.000916	0.53253	-0.11261	-0.010223	-0.00061	0.087433	-0.007782	-0.097809	0.004883	0.000916	-0.011902
13.778	0.020599	0.94284	-0.059814	0.013733	-0.064545	-0.037537	0.27603	0.039215	-0.12863	1.1078	-0.19119	0.00473	-0.13245	-0.45517	-0.055237	-0.009918	0.035706	-0.22049	-0.19409	-0.032959	-0.10346	-0.072479	0.58838	-0.14603	-0.02594	0.015717	0.065002	-0.006714	-0.093231	-0.05127	0.007324	-0.020294
13.779	0.041962	0.93918	-0.14572	0.012512	-0.062103	0.020294	0.17716	0.029907	-0.13657	0.51453	-0.10254	-0.005035	0.34759	-0.36407	-0.027924	-0.011139	0.050812	-0.25909	-0.2507	0.00351	-0.1062	-0.13901	0.56458	-0.16449	-0.023193	0.004272	0.050659	0	-0.058594	-0.057678	0.005951	-0.024109
13.78	0.049744	1.0022	-0.23926	-0.003052	0.014954	0.12817	0.088196	0.007782	0.057983	-0.8931	-0.04364	0.009155	0.76462	-0.25436	0.097961	-0.00473	0.079346	-0.19989	-0.32791	0.06485	-0.12817	-0.12772	0.53925	-0.14954	-0.027466	0.005188	-0.023193	-0.00351	0.018005	-0.063324	-0.000153	-0.027618
13.781	0.0383	1.0535	-0.16205	-0.006104	0.14816	0.070038	0.023651	0.020905	0.1001	-1.0725	-0.007782	0.021515	-0.25879	-0.47272	0.15167	-0.000153	0.058594	-0.29526	-0.31677	0.043488	-0.11704	-0.18356	0.5835	-0.17853	-0.028381	0.001678	-0.039063	-0.000153	0.071106	-0.054016	-0.005798	-0.021973
13.782	0.032501	1.022	-0.17944	0	0.076599	-0.13153	-0.028229	0.000305	0.003815	-0.59586	0.025177	0.008392	-0.62882	-0.87677	0.00473	-0.02121	0.057678	-0.33569	-0.29678	-0.019989	-0.098877	-0.2269	0.58868	-0.1799	-0.018311	0.003357	0.014191	-0.001068	-0.016785	-0.053864	-0.000153	-0.013885
13.783	0.005188	1.0214	0.13046	0.005951	0.026703	-0.17517	-0.042572	0.010681	-0.26871	0.013123	0.032654	0.005035	-0.25299	-0.71701	-0.12878	0.003662	0.054626	-0.32013	-0.26306	-0.027008	-0.10696	-0.072479	0.56091	-0.13153	-0.027924	0.005188	0.14069	-0.002747	-0.088806	-0.063477	0.00412	-0.021057
13.784	-0.014496	1.0722	0.20035	0.018463	-0.010986	-0.37933	-0.067596	0.021515	-0.28519	0.55679	0.015717	0.040894	-0.15732	-0.28412	-0.091858	0.014496	0.027161	-0.24185	-0.26764	0.000305	0.009155	-0.016785	0.57342	-0.092621	-0.014343	-0.001526	0.1445	-0.003204	-0.14023	-0.036774	0.007782	-0.019073
13.785	-0.009918	0.98328	0.045624	0.031738	-0.032349	-0.10483	-0.12619	0.010223	-0.10712	0.80215	0.019073	0.014038	0.28748	0.059357	0.019379	0.014954	0.058594	-0.24872	-0.34195	0.13275	0.031281	-0.018768	0.55985	-0.055847	0.002594	-0.005341	0.092468	-0.00351	-0.14694	-0.056763	-0.006561	-0.015106
13.786	0.001221	0.82764	-0.09964	0.013428	-0.02655	-0.084534	-0.10178	0.023804	-0.037231	0.92636	0.006714	0.006409	0.22659	0.28854	0.046387	-0.007935	0.06958	-0.3096	-0.42694	0.27939	0.058441	0.13886	0.53604	-0.068817	0.016174	-0.009766	0.24887	-0.006409	-0.16983	-0.043488	0.014496	-0.009766
13.787	0.014038	0.88196	-0.05661	0.012665	-0.052795	-0.072937	-0.1831	0.02533	0.10529	0.51559	-0.053406	0.11124	-0.22858	0.13825	0.024872	-0.009003	0.043945	-0.25055	-0.48355	0.27344	0.091248	0.30456	0.53665	-0.061951	0.00824	-0.009308	0.29694	-0.003967	-0.16403	-0.041962	-0.002136	-0.016937
13.788	0.030823	0.97168	-0.047455	0.007172	-0.06897	-0.11765	-0.34058	0.002441	0.29221	0.11643	-0.027313	0.15305	-0.14221	-0.19043	0.072327	-0.001373	-0.014038	-0.22049	-0.48508	0.055389	0.10635	0.29877	0.49301	-0.035706	0.016785	-0.005798	0.052338	-0.010834	-0.09491	-0.009766	-0.003815	-0.01297
13.789	0.042114	1.0147	-0.1506	0.014038	-0.041199	-0.07843	-0.45609	0.001526	0.17578	0.2356	0.018768	-0.094299	0.01709	-0.30502	0.083466	-0.002747	-0.08728	-0.18951	-0.48508	-0.18509	0.058441	0.26291	0.51468	-0.024261	0.034485	-0.014191	0.14618	-0.014801	-0.18845	0.016327	-0.007782	-0.016785
13.79	0.047913	0.9758	-0.17716	0.003204	0.015717	-0.025177	-0.49225	-0.002289	0.067749	-0.23666	0.01236	0.022125	0.103	-0.050659	0.050507	-0.022278	-0.15274	-0.11459	-0.44739	-0.22232	-0.038605	0.27176	0.4924	-0.002899	0.020447	0.003204	0.24078	-0.005188	-0.091553	-0.088654	-0.009918	-0.009918
13.791	0.034485	0.93918	-0.21347	0.010529	0.05661	0.016632	-0.53833	-0.007782	-0.039978	-0.50797	0.010834	0.054779	0.017853	-0.067444	-0.030975	-0.044708	-0.20783	-0.003204	-0.46326	-0.1062	-0.06134	0.38711	0.45578	0.014343	0.056305	0.02594	-0.2301	-0.007935	0.23193	-0.18188	0.001831	-0.007019
13.792	0.032959	0.94513	-0.19089	0.009766	0.039978	0.18021	-0.57831	-0.010681	-0.18951	-0.7341	-0.040436	-0.045929	0.062103	-0.16312	-0.10025	-0.78156	-0.16159	0.10086	-0.40436	-0.082092	-0.034027	0.30228	0.48538	-0.052338	0.01709	0.024872	-0.00351	-0.005646	0.16968	-0.22461	-0.002441	-0.010223
13.793	0.025482	1.0185	-0.2478	0.004425	0.032501	0.31784	-0.4953	-0.013275	-0.28519	-0.45136	-0.038605	-0.028076	-0.001831	-0.066528	-0.11459	-0.37384	-0.09613	0.23712	-0.4718	-0.11124	-0.023193	0.15366	0.50613	-0.12299	-0.00351	0.010071	0.19516	-0.013123	0.002747	-0.15198	-0.00351	-0.013733
13.794	0.014954	1.0706	-0.35858	0.000458	0.036469	0.31082	-0.41885	-0.00351	-0.3096	-0.23086	0.032349	0.008698	-0.086823	-0.14557	-0.093231	-0.063019	-0.10162	0.31021	-0.45624	-0.03067	0.003967	0.086975	0.53635	-0.1709	-0.048676	-0.003662	-0.24475	-0.010681	0.01358	-0.17624	-0.006409	-0.018921
13.795	0.010529	1.2013	-0.2356	0.015717	0.016479	0.13214	-0.46738	0.004578	-0.21088	-0.3508	-0.0383	-0.033875	-0.26337	-0.031738	-0.063629	0.90729	-0.10025	0.39185	-0.50491	0.020447	0.074005	0.035095	0.54336	-0.18814	-0.075836	-0.004272	-0.83542	-0.006104	0.24048	-0.20996	-0.00824	-0.020294
13.796	-0.013123	1.2566	-0.15213	0.018768	-0.028076	-0.070648	-0.42175	0.017395	-0.14053	-0.26657	0.007782	-0.053253	-0.24826	0.14847	-0.013733	-0.14389	-0.054016	0.44708	-0.50323	0.068054	0.082855	0.035248	0.54581	-0.20783	-0.094452	-0.008087	-1.8466	-0.006256	0.33218	-0.1889	-0.00351	-0.023651
13.797	-0.018921	1.4177	-0.027771	0.045166	-0.082855	0.0914	-0.40848	0.028839	-0.15991	-0.25116	-0.007935	-0.0383	0.18829	0.28671	0.001984	0.11398	-0.025177	0.50812	-0.48721	0.078583	0.000153	0.020905	0.53741	-0.26581	-0.1091	-0.00061	-1.772	-0.00351	0.35278	-0.20737	-0.00061	-0.018768
13.798	-0.008392	1.4742	0.078583	0.02655	-0.087128	0.30746	-0.47104	0.016479	-0.15915	-0.5658	-0.024567	-0.0177	0.32959	0.20004	-0.011749	-0.095673	-0.007172	0.53436	-0.55756	0.05249	-0.063477	-0.08255	0.52826	-0.31891	-0.1207	0.004883	-1.1087	-0.008545	0.19867	-0.1915	-0.002136	-0.018921
